<?xml version="1.0" encoding="UTF-8"?>
<!DOCTYPE svg PUBLIC "-//W3C//DTD SVG 1.1//EN" "http://www.w3.org/Graphics/SVG/1.1/DTD/svg11.dtd">
<!-- Creator: CorelDRAW 2021 (64-Bit) -->
<svg xmlns="http://www.w3.org/2000/svg" xml:space="preserve" width="3.91125in" height="1.49113in" version="1.1" style="shape-rendering:geometricPrecision; text-rendering:geometricPrecision; image-rendering:optimizeQuality; fill-rule:evenodd; clip-rule:evenodd"
viewBox="0 0 7983.47 3043.62"
 xmlns:xlink="http://www.w3.org/1999/xlink"
 xmlns:xodm="http://www.corel.com/coreldraw/odm/2003">
 <defs>
  <style type="text/css">
   <![CDATA[
    .fil1 {fill:#00CD6A}
    .fil5 {fill:#6699FF}
    .fil4 {fill:red}
    .fil2 {fill:#FF6600}
    .fil3 {fill:#FFCC00}
    .fil0 {fill:white;fill-rule:nonzero}
   ]]>
  </style>
 </defs>
 <g id="Layer_x0020_1">
  <metadata id="CorelCorpID_0Corel-Layer"/>
  <g id="_2118139875264">
   <path class="fil0" d="M829.58 2280.11l312.65 0 0 -1070.73 -312.65 0 0 112.39c-75.59,-81.74 -185.94,-138.96 -318.75,-138.96 -296.29,0 -510.83,218.65 -510.83,561.93 0,343.3 214.55,561.93 510.83,561.93 132.81,0 243.16,-57.21 318.75,-136.91l0 110.35zm-241.11 -247.24c-155.29,0 -271.76,-102.18 -271.76,-288.12 0,-185.94 116.47,-288.1 271.76,-288.1 98.1,0 196.18,49.03 241.11,138.94l0 300.37c-44.94,87.87 -143.02,136.92 -241.11,136.92zm774.47 247.24l312.62 0 0 -1450.78 -312.62 0 0 1450.78zm533.32 0l312.63 0 0 -1450.78 -312.63 0 0 1450.78zm2280.41 26.56c216.59,0 367.79,-98.07 478.14,-263.6l-214.57 -169.6c-55.15,87.87 -130.77,159.39 -245.2,159.39 -169.58,0 -267.68,-114.43 -267.68,-288.12 0,-173.69 98.1,-288.1 267.68,-288.1 114.43,0 190.05,71.51 245.2,159.38l214.57 -169.61c-110.35,-165.5 -261.56,-263.6 -478.14,-263.6 -371.91,0 -566.02,279.96 -566.02,561.93 0,282 194.11,561.93 566.02,561.93zm621.19 -26.56l312.63 0 0 -657.97c22.48,-83.78 93.99,-165.5 208.42,-165.5 138.96,0 204.34,77.64 204.34,222.72l0 600.75 312.63 0 0 -633.44c0,-263.6 -116.47,-463.86 -396.41,-463.86 -159.38,0 -271.76,69.49 -328.98,165.53l0 -519.01 -312.63 0 0 1450.78zm2020.85 0l312.65 0 0 -1070.73 -312.65 0 0 112.39c-75.59,-81.74 -185.94,-138.96 -318.75,-138.96 -296.29,0 -510.83,218.65 -510.83,561.93 0,343.3 214.55,561.93 510.83,561.93 132.81,0 243.16,-57.21 318.75,-136.91l0 110.35zm-241.11 -247.24c-155.29,0 -271.76,-102.18 -271.76,-288.12 0,-185.94 116.47,-288.1 271.76,-288.1 98.1,0 196.18,49.03 241.11,138.94l0 300.37c-44.94,87.87 -143.02,136.92 -241.11,136.92zm1268.94 261.53c42.93,0 96.04,-6.12 136.92,-14.29l0 -247.24 -59.26 0c-114.43,0 -175.73,-44.96 -175.73,-167.57l0 -408.66 234.99 0 0 -247.26 -234.99 0 0 -269.72 -302.41 0 0 269.72 -183.9 0 0 247.26 173.67 0 0 390.29c0,312.62 138.96,447.47 410.72,447.47z"/>
   <g>
    <circle class="fil1" cx="2876.53" cy="1878.99" r="442.34"/>
    <circle class="fil2" cx="3378.48" cy="781.64" r="331.73"/>
    <circle class="fil3" cx="4467.32" cy="254.18" r="254.18"/>
    <circle class="fil4" cx="5486.35" cy="321.8" r="199.4"/>
    <circle class="fil5" cx="6245.37" cy="875" r="141.53"/>
   </g>
   <path class="fil0" d="M1319.02 3036.21l71.49 0 29.14 -76.25 160.45 0 29.11 76.25 71.51 0 -140.33 -360.09 -81.04 0 -140.33 360.09zm6664.45 -207.55l-1135.74 0 0 33.8 1135.74 0 0 -33.8zm-6847.72 0l-1135.74 0 0 33.8 1135.74 0 0 -33.8zm363.86 -78.94l57.19 150.4 -114.38 0 57.19 -150.4zm212.37 286.49l67.26 0 0 -375.99 -67.26 0 0 375.99zm131.34 0l67.26 0 0 -375.99 -67.26 0 0 375.99zm415.2 7.41c74.65,0 130.26,-34.94 161.51,-88.44l-51.37 -38.13c-22.78,38.13 -56.14,62.5 -108.57,62.5 -69.9,0 -113.85,-53.48 -113.85,-123.39 0,-69.9 43.96,-123.4 113.85,-123.4 52.43,0 85.78,24.37 108.57,62.5l51.37 -38.13c-31.25,-53.48 -86.86,-88.44 -161.51,-88.44 -106.45,0 -183.24,79.97 -183.24,187.47 0,107.51 76.78,187.46 183.24,187.46zm204.4 -7.41l67.26 0 0 -171.58c5.81,-21.17 26.48,-47.65 62.47,-47.65 39.74,0 60.38,22.76 60.38,66.19l0 153.04 67.25 0 0 -160.46c0,-69.9 -32.84,-118.63 -103.79,-118.63 -42.37,0 -71.48,20.12 -86.31,44.49l0 -141.39 -67.26 0 0 375.99zm519.51 0l67.24 0 0 -272.73 -67.24 0 0 31.77c-20.15,-22.76 -49.78,-38.13 -85.28,-38.13 -75.73,0 -131.32,56.66 -131.32,142.99 0,86.31 55.59,142.45 131.32,142.45 35.5,0 65.13,-14.82 85.28,-37.6l0 31.24zm-70.44 -53.48c-43.96,0 -77.86,-30.18 -77.86,-82.61 0,-52.97 33.9,-83.14 77.86,-83.14 30.17,0 58.25,15.35 70.44,41.3l0 83.67c-12.18,25.42 -40.27,40.78 -70.44,40.78zm321.96 56.65c10.05,0 21.17,-1.05 30.19,-3.17l0 -54 -12.71 0c-33.9,0 -50.31,-12.18 -50.31,-47.15l0 -117.55 63.02 0 0 -54.03 -63.02 0 0 -69.38 -65.16 0 0 69.38 -47.65 0 0 54.03 45.53 0 0 114.38c0,74.65 33.89,107.48 100.1,107.48zm71.49 -3.17l81.56 0 0 -81.03 -81.56 0 0 81.03zm397.18 7.41c106.43,0 183.21,-79.95 183.21,-187.46 0,-107.5 -76.78,-187.47 -183.21,-187.47 -106.45,0 -183.23,79.97 -183.23,187.47 0,107.51 76.78,187.46 183.23,187.46zm0 -310.86c69.36,0 112.26,53.5 112.26,123.4 0,69.91 -42.9,123.39 -112.26,123.39 -69.38,0 -112.27,-53.48 -112.27,-123.39 0,-69.9 42.9,-123.4 112.27,-123.4zm233.53 303.45l67.26 0 0 -171.58c6.88,-24.9 29.11,-47.65 62.47,-47.65 39.73,0 60.38,22.76 60.38,66.19l0 153.04 67.24 0 0 -160.46c0,-69.9 -32.83,-118.63 -103.79,-118.63 -42.37,0 -71.49,20.12 -86.31,44.49l0 -38.13 -67.26 0 0 272.73zm446.94 6.89c51.9,0 92.16,-23.84 117.58,-54.53l-37.07 -43.96c-15.9,21.7 -43.96,40.24 -77.31,40.24 -47.14,0 -72.57,-24.89 -79.44,-61.44l197.53 0c1.58,-11.11 3.19,-23.81 3.19,-32.83 0,-78.37 -51.9,-133.45 -131.34,-133.45 -79.42,0 -137.14,58.25 -137.14,143.52 0,79.42 55.59,142.45 144.02,142.45zm-6.88 -230.36c36.55,0 60.91,20.12 64.6,55.61l-132.92 0c9.02,-36.02 33.38,-55.61 68.32,-55.61zm422.05 230.88c83.14,0 139.81,-47.65 139.81,-117.02 0,-60.91 -43.43,-97.98 -117.55,-109.09l-30.72 -4.77c-31.24,-4.77 -47.12,-20.12 -47.12,-41.3 0,-21.72 21.17,-40.78 57.17,-40.78 32.33,0 62.5,14.29 84.75,41.84l43.96 -45.54c-25.95,-33.9 -71.51,-58.27 -127.1,-58.27 -80.5,0 -130.28,48.72 -130.28,109.64 0,55.59 42.9,92.13 106.45,101.68l31.24 4.74c42.37,6.36 58.25,23.84 58.25,46.62 0,28.06 -23.31,50.29 -67.79,50.29 -54.53,0 -89.5,-31.22 -110.14,-63.55l-45.02 43.96c25.43,38.66 70.96,81.56 154.1,81.56zm318.27 0c94.8,0 144.58,-68.32 144.58,-143.5 0,-74.67 -49.78,-142.99 -144.58,-142.99 -94.79,0 -144.55,68.32 -144.55,142.99 0,75.18 49.76,143.5 144.55,143.5zm0 -226.64c43.96,0 76.26,32.84 76.26,83.14 0,50.84 -32.3,83.67 -76.26,83.67 -43.95,0 -76.25,-32.83 -76.25,-83.67 0,-50.31 32.3,-83.14 76.25,-83.14zm192.76 219.23l67.26 0 0 -375.99 -67.26 0 0 375.99zm385.53 -272.73l-67.26 0 0 171.58c-6.89,24.9 -29.11,47.67 -62.5,47.67 -39.71,0 -60.36,-22.77 -60.36,-66.21l0 -153.04 -67.26 0 0 160.46c0,69.9 32.85,118.63 103.81,118.63 42.35,0 71.49,-20.12 86.31,-44.49l0 38.13 67.26 0 0 -272.73zm183.76 275.89c10.05,0 21.17,-1.05 30.19,-3.17l0 -54 -12.7 0c-33.91,0 -50.31,-12.18 -50.31,-47.15l0 -117.55 63.02 0 0 -54.03 -63.02 0 0 -69.38 -65.16 0 0 69.38 -47.65 0 0 54.03 45.54 0 0 114.38c0,74.65 33.88,107.48 100.09,107.48zm75.2 -3.17l67.27 0 0 -272.73 -67.27 0 0 272.73zm-1.05 -318.8l68.84 0 0 -69.9 -68.84 0 0 69.9zm261.61 326.21c94.79,0 144.58,-68.32 144.58,-143.5 0,-74.67 -49.78,-142.99 -144.58,-142.99 -94.79,0 -144.56,68.32 -144.56,142.99 0,75.18 49.77,143.5 144.56,143.5zm0 -226.64c43.96,0 76.25,32.84 76.25,83.14 0,50.84 -32.3,83.67 -76.25,83.67 -43.96,0 -76.26,-32.83 -76.26,-83.67 0,-50.31 32.3,-83.14 76.26,-83.14zm192.75 219.23l67.26 0 0 -171.58c6.89,-24.9 29.11,-47.65 62.47,-47.65 39.74,0 60.38,22.76 60.38,66.19l0 153.04 67.24 0 0 -160.46c0,-69.9 -32.83,-118.63 -103.79,-118.63 -42.37,0 -71.48,20.12 -86.31,44.49l0 -38.13 -67.26 0 0 272.73z"/>
  </g>
 </g>
</svg>
